<?xml version="1.0" encoding="UTF-8" standalone="no"?><svg xmlns="http://www.w3.org/2000/svg" xmlns:xlink="http://www.w3.org/1999/xlink" contentScriptType="application/ecmascript" contentStyleType="text/css" height="429px" preserveAspectRatio="none" style="width:514px;height:429px;" version="1.1" viewBox="0 0 514 429" width="514px" zoomAndPan="magnify"><defs/><g><rect fill="#FFFFFF" height="91.0547" style="stroke:#A80036;stroke-width:1.0;" width="10" x="283.5" y="148.3125"/><rect fill="#FFFFFF" height="134.4063" style="stroke:#A80036;stroke-width:1.0;" width="10" x="283.5" y="269.7188"/><rect fill="#FFFFFF" height="30.3516" style="stroke:#A80036;stroke-width:1.0;" width="10" x="484.5" y="178.6641"/><line style="stroke:#A80036;stroke-width:1.0;stroke-dasharray:5.0,5.0;" x1="22" x2="22" y1="85.6094" y2="422.125"/><line style="stroke:#A80036;stroke-width:1.0;stroke-dasharray:5.0,5.0;" x1="148.5" x2="148.5" y1="85.6094" y2="422.125"/><line style="stroke:#A80036;stroke-width:1.0;stroke-dasharray:5.0,5.0;" x1="288.5" x2="288.5" y1="85.6094" y2="422.125"/><line style="stroke:#A80036;stroke-width:1.0;stroke-dasharray:5.0,5.0;" x1="489.5" x2="489.5" y1="85.6094" y2="422.125"/><text fill="#000000" font-family="sans-serif" font-size="14" lengthAdjust="spacingAndGlyphs" textLength="29" x="5" y="82.5332">User</text><ellipse cx="22.5" cy="15" fill="#FEFECE" rx="8" ry="8" style="stroke:#A80036;stroke-width:2.0;"/><path d="M22.5,23 L22.5,50 M9.5,31 L35.5,31 M22.5,50 L9.5,65 M22.5,50 L35.5,65 " fill="none" style="stroke:#A80036;stroke-width:2.0;"/><rect fill="#FEFECE" height="31.6094" style="stroke:#A80036;stroke-width:1.5;" width="26" x="135.5" y="53"/><text fill="#000000" font-family="sans-serif" font-size="14" lengthAdjust="spacingAndGlyphs" textLength="12" x="142.5" y="74.5332">UI</text><rect fill="#FEFECE" height="31.6094" style="stroke:#A80036;stroke-width:1.5;" width="56" x="260.5" y="53"/><text fill="#000000" font-family="sans-serif" font-size="14" lengthAdjust="spacingAndGlyphs" textLength="42" x="267.5" y="74.5332">Server</text><text fill="#000000" font-family="sans-serif" font-size="14" lengthAdjust="spacingAndGlyphs" textLength="19" x="477" y="82.5332">DB</text><path d="M471.5,32 C471.5,22 489.5,22 489.5,22 C489.5,22 507.5,22 507.5,32 L507.5,58 C507.5,68 489.5,68 489.5,68 C489.5,68 471.5,68 471.5,58 L471.5,32 " fill="#FEFECE" style="stroke:#000000;stroke-width:1.5;"/><path d="M471.5,32 C471.5,42 489.5,42 489.5,42 C489.5,42 507.5,42 507.5,32 " fill="none" style="stroke:#000000;stroke-width:1.5;"/><rect fill="#FFFFFF" height="91.0547" style="stroke:#A80036;stroke-width:1.0;" width="10" x="283.5" y="148.3125"/><rect fill="#FFFFFF" height="134.4063" style="stroke:#A80036;stroke-width:1.0;" width="10" x="283.5" y="269.7188"/><rect fill="#FFFFFF" height="30.3516" style="stroke:#A80036;stroke-width:1.0;" width="10" x="484.5" y="178.6641"/><polygon fill="#A80036" points="136.5,113.9609,146.5,117.9609,136.5,121.9609" style="stroke:#A80036;stroke-width:1.0;"/><line style="stroke:#A80036;stroke-width:1.0;" x1="22.5" x2="142.5" y1="117.9609" y2="117.9609"/><text fill="#000000" font-family="sans-serif" font-size="13" lengthAdjust="spacingAndGlyphs" textLength="102" x="29.5" y="113.1045">Enter user details</text><polygon fill="#A80036" points="271.5,144.3125,281.5,148.3125,271.5,152.3125" style="stroke:#A80036;stroke-width:1.0;"/><line style="stroke:#A80036;stroke-width:1.0;" x1="148.5" x2="277.5" y1="148.3125" y2="148.3125"/><text fill="#000000" font-family="sans-serif" font-size="13" lengthAdjust="spacingAndGlyphs" textLength="105" x="155.5" y="143.4561">check-email/email</text><polygon fill="#A80036" points="472.5,174.6641,482.5,178.6641,472.5,182.6641" style="stroke:#A80036;stroke-width:1.0;"/><line style="stroke:#A80036;stroke-width:1.0;" x1="293.5" x2="478.5" y1="178.6641" y2="178.6641"/><text fill="#000000" font-family="sans-serif" font-size="13" lengthAdjust="spacingAndGlyphs" textLength="115" x="300.5" y="173.8076">Check if user exists</text><polygon fill="#A80036" points="304.5,205.0156,294.5,209.0156,304.5,213.0156" style="stroke:#A80036;stroke-width:1.0;"/><line style="stroke:#A80036;stroke-width:1.0;stroke-dasharray:2.0,2.0;" x1="298.5" x2="488.5" y1="209.0156" y2="209.0156"/><text fill="#000000" font-family="sans-serif" font-size="13" lengthAdjust="spacingAndGlyphs" textLength="24" x="310.5" y="204.1592">bool</text><polygon fill="#A80036" points="159.5,235.3672,149.5,239.3672,159.5,243.3672" style="stroke:#A80036;stroke-width:1.0;"/><line style="stroke:#A80036;stroke-width:1.0;stroke-dasharray:2.0,2.0;" x1="153.5" x2="287.5" y1="239.3672" y2="239.3672"/><text fill="#000000" font-family="sans-serif" font-size="13" lengthAdjust="spacingAndGlyphs" textLength="71" x="165.5" y="234.5107">user exists?</text><polygon fill="#A80036" points="271.5,265.7188,281.5,269.7188,271.5,273.7188" style="stroke:#A80036;stroke-width:1.0;"/><line style="stroke:#A80036;stroke-width:1.0;" x1="148.5" x2="277.5" y1="269.7188" y2="269.7188"/><text fill="#000000" font-family="sans-serif" font-size="13" lengthAdjust="spacingAndGlyphs" textLength="116" x="155.5" y="264.8623">register(userDetails)</text><line style="stroke:#A80036;stroke-width:1.0;" x1="293.5" x2="335.5" y1="300.0703" y2="300.0703"/><line style="stroke:#A80036;stroke-width:1.0;" x1="335.5" x2="335.5" y1="300.0703" y2="313.0703"/><line style="stroke:#A80036;stroke-width:1.0;" x1="294.5" x2="335.5" y1="313.0703" y2="313.0703"/><polygon fill="#A80036" points="304.5,309.0703,294.5,313.0703,304.5,317.0703" style="stroke:#A80036;stroke-width:1.0;"/><text fill="#000000" font-family="sans-serif" font-size="13" lengthAdjust="spacingAndGlyphs" textLength="104" x="300.5" y="295.2139">Encrypt password</text><polygon fill="#A80036" points="477.5,339.4219,487.5,343.4219,477.5,347.4219" style="stroke:#A80036;stroke-width:1.0;"/><line style="stroke:#A80036;stroke-width:1.0;" x1="293.5" x2="483.5" y1="343.4219" y2="343.4219"/><text fill="#000000" font-family="sans-serif" font-size="13" lengthAdjust="spacingAndGlyphs" textLength="94" x="300.5" y="338.5654">Create new user</text><polygon fill="#A80036" points="477.5,369.7734,487.5,373.7734,477.5,377.7734" style="stroke:#A80036;stroke-width:1.0;"/><line style="stroke:#A80036;stroke-width:1.0;" x1="293.5" x2="483.5" y1="373.7734" y2="373.7734"/><text fill="#000000" font-family="sans-serif" font-size="13" lengthAdjust="spacingAndGlyphs" textLength="172" x="300.5" y="368.917">Add user to "Welcome" group</text><polygon fill="#A80036" points="159.5,400.125,149.5,404.125,159.5,408.125" style="stroke:#A80036;stroke-width:1.0;"/><line style="stroke:#A80036;stroke-width:1.0;stroke-dasharray:2.0,2.0;" x1="153.5" x2="287.5" y1="404.125" y2="404.125"/><text fill="#000000" font-family="sans-serif" font-size="13" lengthAdjust="spacingAndGlyphs" textLength="45" x="165.5" y="399.2686">Created</text><!--MD5=[f9987eab7a58e6e06fdaeb5c32c63385]
@startuml Register
skinparam Style strictuml
actor User
participant UI
participant Server
database DB

User->UI:Enter user details
    UI->Server ++: check-email/email
    Server->DB ++:Check if user exists
        return bool
    return user exists?
    UI->Server ++: register(userDetails)
        Server->Server :Encrypt password
        Server->DB: Create new user
        Server->DB:Add user to "Welcome" group
return Created
@enduml

PlantUML version 1.2020.22(Sun Dec 06 15:06:27 IST 2020)
(GPL source distribution)
Java Runtime: OpenJDK Runtime Environment
JVM: OpenJDK 64-Bit Server VM
Default Encoding: Cp1252
Language: en
Country: IN
--></g></svg>