<?xml version="1.0" encoding="UTF-8" standalone="no"?><svg xmlns="http://www.w3.org/2000/svg" xmlns:xlink="http://www.w3.org/1999/xlink" contentScriptType="application/ecmascript" contentStyleType="text/css" height="234px" preserveAspectRatio="none" style="width:829px;height:234px;" version="1.1" viewBox="0 0 829 234" width="829px" zoomAndPan="magnify"><defs/><g><rect fill="#FFFFFF" height="60.7031" style="stroke:#A80036;stroke-width:1.0;" width="10" x="498.5" y="148.3125"/><line style="stroke:#A80036;stroke-width:1.0;stroke-dasharray:5.0,5.0;" x1="22" x2="22" y1="85.6094" y2="227.0156"/><line style="stroke:#A80036;stroke-width:1.0;stroke-dasharray:5.0,5.0;" x1="251.5" x2="251.5" y1="85.6094" y2="227.0156"/><line style="stroke:#A80036;stroke-width:1.0;stroke-dasharray:5.0,5.0;" x1="503.5" x2="503.5" y1="85.6094" y2="227.0156"/><line style="stroke:#A80036;stroke-width:1.0;stroke-dasharray:5.0,5.0;" x1="804.5" x2="804.5" y1="85.6094" y2="227.0156"/><text fill="#000000" font-family="sans-serif" font-size="14" lengthAdjust="spacingAndGlyphs" textLength="29" x="5" y="82.5332">User</text><ellipse cx="22.5" cy="15" fill="#FEFECE" rx="8" ry="8" style="stroke:#A80036;stroke-width:2.0;"/><path d="M22.5,23 L22.5,50 M9.5,31 L35.5,31 M22.5,50 L9.5,65 M22.5,50 L35.5,65 " fill="none" style="stroke:#A80036;stroke-width:2.0;"/><rect fill="#FEFECE" height="31.6094" style="stroke:#A80036;stroke-width:1.5;" width="26" x="238.5" y="53"/><text fill="#000000" font-family="sans-serif" font-size="14" lengthAdjust="spacingAndGlyphs" textLength="12" x="245.5" y="74.5332">UI</text><rect fill="#FEFECE" height="31.6094" style="stroke:#A80036;stroke-width:1.5;" width="56" x="475.5" y="53"/><text fill="#000000" font-family="sans-serif" font-size="14" lengthAdjust="spacingAndGlyphs" textLength="42" x="482.5" y="74.5332">Server</text><text fill="#000000" font-family="sans-serif" font-size="14" lengthAdjust="spacingAndGlyphs" textLength="19" x="792" y="82.5332">DB</text><path d="M786.5,32 C786.5,22 804.5,22 804.5,22 C804.5,22 822.5,22 822.5,32 L822.5,58 C822.5,68 804.5,68 804.5,68 C804.5,68 786.5,68 786.5,58 L786.5,32 " fill="#FEFECE" style="stroke:#000000;stroke-width:1.5;"/><path d="M786.5,32 C786.5,42 804.5,42 804.5,42 C804.5,42 822.5,42 822.5,32 " fill="none" style="stroke:#000000;stroke-width:1.5;"/><rect fill="#FFFFFF" height="60.7031" style="stroke:#A80036;stroke-width:1.0;" width="10" x="498.5" y="148.3125"/><polygon fill="#A80036" points="239.5,113.9609,249.5,117.9609,239.5,121.9609" style="stroke:#A80036;stroke-width:1.0;"/><line style="stroke:#A80036;stroke-width:1.0;" x1="22.5" x2="245.5" y1="117.9609" y2="117.9609"/><text fill="#000000" font-family="sans-serif" font-size="13" lengthAdjust="spacingAndGlyphs" textLength="205" x="29.5" y="113.1045">Enter types search term (onKeyUp)</text><polygon fill="#A80036" points="486.5,144.3125,496.5,148.3125,486.5,152.3125" style="stroke:#A80036;stroke-width:1.0;"/><line style="stroke:#A80036;stroke-width:1.0;" x1="251.5" x2="492.5" y1="148.3125" y2="148.3125"/><text fill="#000000" font-family="sans-serif" font-size="13" lengthAdjust="spacingAndGlyphs" textLength="228" x="258.5" y="143.4561">search-user($term,$maxResults,$page)</text><polygon fill="#A80036" points="792.5,174.6641,802.5,178.6641,792.5,182.6641" style="stroke:#A80036;stroke-width:1.0;"/><line style="stroke:#A80036;stroke-width:1.0;" x1="508.5" x2="798.5" y1="178.6641" y2="178.6641"/><text fill="#000000" font-family="sans-serif" font-size="13" lengthAdjust="spacingAndGlyphs" textLength="272" x="515.5" y="173.8076">Search users with FirstName,LastName, Email</text><polygon fill="#A80036" points="262.5,205.0156,252.5,209.0156,262.5,213.0156" style="stroke:#A80036;stroke-width:1.0;"/><line style="stroke:#A80036;stroke-width:1.0;stroke-dasharray:2.0,2.0;" x1="256.5" x2="502.5" y1="209.0156" y2="209.0156"/><text fill="#000000" font-family="sans-serif" font-size="13" lengthAdjust="spacingAndGlyphs" textLength="55" x="268.5" y="204.1592">Users list</text><!--MD5=[0029a8db33965b8f90f5f065a8586046]
@startuml Search
skinparam Style strictuml
actor User
participant UI
participant Server
database DB

User->UI:Enter types search term (onKeyUp)
    UI->Server ++: search-user($term,$maxResults,$page)
    Server->DB :Search users with FirstName,LastName, Email
return Users list
@enduml

PlantUML version 1.2020.22(Sun Dec 06 15:06:27 IST 2020)
(GPL source distribution)
Java Runtime: OpenJDK Runtime Environment
JVM: OpenJDK 64-Bit Server VM
Default Encoding: Cp1252
Language: en
Country: IN
--></g></svg>