<?xml version="1.0" encoding="UTF-8" standalone="no"?><svg xmlns="http://www.w3.org/2000/svg" xmlns:xlink="http://www.w3.org/1999/xlink" contentScriptType="application/ecmascript" contentStyleType="text/css" height="264px" preserveAspectRatio="none" style="width:609px;height:264px;" version="1.1" viewBox="0 0 609 264" width="609px" zoomAndPan="magnify"><defs/><g><rect fill="#FFFFFF" height="91.0547" style="stroke:#A80036;stroke-width:1.0;" width="10" x="415.5" y="148.3125"/><line style="stroke:#A80036;stroke-width:1.0;stroke-dasharray:5.0,5.0;" x1="26" x2="26" y1="85.6094" y2="257.3672"/><line style="stroke:#A80036;stroke-width:1.0;stroke-dasharray:5.0,5.0;" x1="79" x2="79" y1="85.6094" y2="257.3672"/><line style="stroke:#A80036;stroke-width:1.0;stroke-dasharray:5.0,5.0;" x1="188.5" x2="188.5" y1="85.6094" y2="257.3672"/><line style="stroke:#A80036;stroke-width:1.0;stroke-dasharray:5.0,5.0;" x1="420.5" x2="420.5" y1="85.6094" y2="257.3672"/><line style="stroke:#A80036;stroke-width:1.0;stroke-dasharray:5.0,5.0;" x1="584.5" x2="584.5" y1="85.6094" y2="257.3672"/><text fill="#000000" font-family="sans-serif" font-size="14" lengthAdjust="spacingAndGlyphs" textLength="37" x="5" y="82.5332">User1</text><ellipse cx="26.5" cy="15" fill="#FEFECE" rx="8" ry="8" style="stroke:#A80036;stroke-width:2.0;"/><path d="M26.5,23 L26.5,50 M13.5,31 L39.5,31 M26.5,50 L13.5,65 M26.5,50 L39.5,65 " fill="none" style="stroke:#A80036;stroke-width:2.0;"/><text fill="#000000" font-family="sans-serif" font-size="14" lengthAdjust="spacingAndGlyphs" textLength="37" x="58" y="82.5332">User2</text><ellipse cx="79.5" cy="15" fill="#FEFECE" rx="8" ry="8" style="stroke:#A80036;stroke-width:2.0;"/><path d="M79.5,23 L79.5,50 M66.5,31 L92.5,31 M79.5,50 L66.5,65 M79.5,50 L92.5,65 " fill="none" style="stroke:#A80036;stroke-width:2.0;"/><rect fill="#FEFECE" height="31.6094" style="stroke:#A80036;stroke-width:1.5;" width="26" x="175.5" y="53"/><text fill="#000000" font-family="sans-serif" font-size="14" lengthAdjust="spacingAndGlyphs" textLength="12" x="182.5" y="74.5332">UI</text><rect fill="#FEFECE" height="31.6094" style="stroke:#A80036;stroke-width:1.5;" width="56" x="392.5" y="53"/><text fill="#000000" font-family="sans-serif" font-size="14" lengthAdjust="spacingAndGlyphs" textLength="42" x="399.5" y="74.5332">Server</text><text fill="#000000" font-family="sans-serif" font-size="14" lengthAdjust="spacingAndGlyphs" textLength="19" x="572" y="82.5332">DB</text><path d="M566.5,32 C566.5,22 584.5,22 584.5,22 C584.5,22 602.5,22 602.5,32 L602.5,58 C602.5,68 584.5,68 584.5,68 C584.5,68 566.5,68 566.5,58 L566.5,32 " fill="#FEFECE" style="stroke:#000000;stroke-width:1.5;"/><path d="M566.5,32 C566.5,42 584.5,42 584.5,42 C584.5,42 602.5,42 602.5,32 " fill="none" style="stroke:#000000;stroke-width:1.5;"/><rect fill="#FFFFFF" height="91.0547" style="stroke:#A80036;stroke-width:1.0;" width="10" x="415.5" y="148.3125"/><polygon fill="#A80036" points="176.5,113.9609,186.5,117.9609,176.5,121.9609" style="stroke:#A80036;stroke-width:1.0;"/><line style="stroke:#A80036;stroke-width:1.0;" x1="79.5" x2="182.5" y1="117.9609" y2="117.9609"/><text fill="#000000" font-family="sans-serif" font-size="13" lengthAdjust="spacingAndGlyphs" textLength="85" x="86.5" y="113.1045">Type message</text><polygon fill="#A80036" points="403.5,144.3125,413.5,148.3125,403.5,152.3125" style="stroke:#A80036;stroke-width:1.0;"/><line style="stroke:#A80036;stroke-width:1.0;" x1="188.5" x2="409.5" y1="148.3125" y2="148.3125"/><text fill="#000000" font-family="sans-serif" font-size="13" lengthAdjust="spacingAndGlyphs" textLength="208" x="195.5" y="143.4561">SendMessage($threadId,$message)</text><polygon fill="#A80036" points="572.5,174.6641,582.5,178.6641,572.5,182.6641" style="stroke:#A80036;stroke-width:1.0;"/><line style="stroke:#A80036;stroke-width:1.0;" x1="425.5" x2="578.5" y1="178.6641" y2="178.6641"/><text fill="#000000" font-family="sans-serif" font-size="13" lengthAdjust="spacingAndGlyphs" textLength="135" x="432.5" y="173.8076">Add message to thread</text><polygon fill="#A80036" points="37.5,205.0156,27.5,209.0156,37.5,213.0156" style="stroke:#A80036;stroke-width:1.0;"/><line style="stroke:#A80036;stroke-width:1.0;" x1="31.5" x2="414.5" y1="209.0156" y2="209.0156"/><text fill="#000000" font-family="sans-serif" font-size="13" lengthAdjust="spacingAndGlyphs" textLength="135" x="43.5" y="204.1592">Send message if online</text><polygon fill="#A80036" points="199.5,235.3672,189.5,239.3672,199.5,243.3672" style="stroke:#A80036;stroke-width:1.0;"/><line style="stroke:#A80036;stroke-width:1.0;stroke-dasharray:2.0,2.0;" x1="193.5" x2="419.5" y1="239.3672" y2="239.3672"/><text fill="#000000" font-family="sans-serif" font-size="13" lengthAdjust="spacingAndGlyphs" textLength="53" x="205.5" y="234.5107">Message</text><!--MD5=[16f48f57585e4c0e4a8fc68f900965be]
@startuml SendMessage
skinparam Style strictuml
actor User1
actor User2
participant UI
participant Server
database DB

User2->UI:Type message
    UI->Server ++: SendMessage($threadId,$message)
    Server->DB :Add message to thread
    Server -> User1: Send message if online
return Message
@enduml

PlantUML version 1.2020.22(Sun Dec 06 15:06:27 IST 2020)
(GPL source distribution)
Java Runtime: OpenJDK Runtime Environment
JVM: OpenJDK 64-Bit Server VM
Default Encoding: Cp1252
Language: en
Country: IN
--></g></svg>